<?xml version="1.0" encoding="utf-8"?>
<svg version="1.1" xmlns="http://www.w3.org/2000/svg" xmlns:xlink="http://www.w3.org/1999/xlink" x="0px" y="0px" viewBox="0 0 1000 1000" enable-background="new 0 0 1000 1000"
     xml:space="preserve">
<g><g transform="translate(0.000000,511.000000) scale(0.100000,-0.100000)"><path fill="currentColor" d="M1314.6,2286.2C647.5,1126.8,100,146.8,100,110c0-41.4,547.5-1021.4,1214.6-2176.2l1214.6-2102.6H5000h2475.3l1210,2102.6C9352.5-906.8,9900,73.2,9900,110c0,36.8-547.5,1016.8-1214.7,2176.2L7470.7,4388.9H5000H2524.7L1314.6,2286.2z M5754.6,2456.5c427.9-147.2,699.3-317.5,1016.8-648.7c340.5-354.3,538.3-731.5,644.1-1219.2c82.8-400.3,82.8-556.7,0-961.6c-207-980-952.4-1725.4-1937-1932.4c-400.3-82.8-556.7-82.8-957,0c-487.7,105.8-865,303.6-1219.3,644.1C2280.8-676.7,2267,836.9,3270,1840C3946.4,2516.3,4898.8,2750.9,5754.6,2456.5z"/></g></g>
</svg>
